<?xml version="1.0" standalone="no"?>
<!DOCTYPE svg PUBLIC "-//W3C//DTD SVG 20010904//EN"
 "http://www.w3.org/TR/2001/REC-SVG-20010904/DTD/svg10.dtd">
<svg version="1.0" xmlns="http://www.w3.org/2000/svg"
 width="300.000000pt" height="300.000000pt" viewBox="0 0 300.000000 300.000000"
 preserveAspectRatio="xMidYMid meet">
<metadata>
Created by potrace 1.11, written by Peter Selinger 2001-2013
</metadata>
<g transform="translate(0.000000,300.000000) scale(0.100000,-0.100000)"
fill="#000000" stroke="none">
<path d="M1157 2749 c-53 -20 -97 -34 -97 -31 0 2 -6 0 -12 -5 -7 -6 -26 -13
-43 -17 -27 -6 -141 -72 -333 -193 -37 -23 -73 -46 -81 -49 -16 -8 -203 -124
-211 -131 -3 -3 -7 -35 -10 -71 l-5 -67 -48 -9 c-55 -10 -33 18 -213 -275
l-101 -165 19 -66 c10 -36 27 -96 38 -135 10 -38 35 -128 55 -200 19 -71 45
-166 57 -210 11 -44 39 -120 62 -170 75 -166 213 -440 235 -465 36 -41 55 -64
82 -100 15 -19 35 -45 45 -57 11 -12 50 -60 88 -107 l68 -84 33 15 c30 14 35
23 60 119 15 57 30 104 34 105 3 0 14 2 23 4 9 2 75 6 145 10 70 4 144 8 163
10 30 2 196 12 340 20 55 4 239 15 300 20 25 1 61 3 81 4 l35 1 -3 147 c-2 82
-8 170 -13 196 -10 48 -6 72 10 62 4 -3 34 -7 67 -9 32 -2 92 -8 133 -12 106
-10 106 -10 288 16 37 5 71 10 76 10 12 0 233 227 319 327 71 84 76 92 101
188 15 55 29 113 32 128 4 23 -8 124 -22 180 -1 4 -2 16 -3 28 -1 21 -14 27
-346 184 -44 21 -134 62 -200 92 -132 59 -137 63 -142 95 -9 62 -65 326 -73
345 -6 16 -24 27 -55 35 -25 7 -45 16 -45 20 0 4 -60 37 -132 73 -119 59 -210
90 -443 155 -16 5 -82 24 -145 42 l-115 34 -98 -37z"/>
</g>
</svg>
